<svg version="1.1" viewBox="0.0 0.0 412.40157480314963 171.4750656167979" fill="none" stroke="none" stroke-linecap="square" stroke-miterlimit="10" xmlns:xlink="http://www.w3.org/1999/xlink" xmlns="http://www.w3.org/2000/svg"><clipPath id="p.0"><path d="m0 0l412.40158 0l0 171.47507l-412.40158 0l0 -171.47507z" clip-rule="nonzero"/></clipPath><g clip-path="url(#p.0)"><path fill="#000000" fill-opacity="0.0" d="m0 0l412.40158 0l0 171.47507l-412.40158 0z" fill-rule="evenodd"/><path fill="#000000" fill-opacity="0.0" d="m7.7125983 -1.523622l396.97638 0l0 174.51968l-396.97638 0z" fill-rule="evenodd"/><path fill="#f1f2f6" d="m48.737514 43.450134q-8.578125 3.453125 -13.25 10.5625q-4.671873 7.09375 -4.671873 17.328125q0 4.75 0.890625 6.609375q0.9062481 1.84375 0.9062481 2.109375q-6.921873 0 -10.312498 -2.875q-3.390625 -2.890625 -3.390625 -9.546875q0 -8.1875 6.71875 -15.9375q6.718748 -7.75 17.218748 -12.546875q10.5 -4.796875 21.0 -4.796875q1.7812538 0 5.109379 0.25l-20.343754 95.75l-18.437498 0l18.562498 -86.90625zm63.609394 87.671875q-7.796875 0 -11.453125 -4.15625q-3.640625 -4.15625 -3.640625 -10.3125q0 -2.6875 0.640625 -6.078125q0.640625 -3.390625 1.34375 -6.578125q0.703125 -3.203125 0.953125 -4.109375q1.03125 -4.46875 1.921875 -8.8125q0.890625 -4.359375 0.890625 -7.0625q0 -6.515625 -4.609375 -6.515625q-3.328125 0 -5.890625 3.265625q-2.546875 3.25 -4.09375 8.5l-8.703125 41.09375l-18.421879 0l13.562504 -64.0l18.4375 0l-1.40625 6.65625q6.390625 -7.171875 14.96875 -7.171875q6.53125 0 10.359375 3.59375q3.84375 3.578125 3.84375 10.875q0 3.703125 -0.890625 8.25q-0.890625 4.546875 -2.5625 11.078125q-1.015625 3.96875 -1.859375 7.75q-0.828125 3.765625 -0.828125 5.9375q0 2.5625 1.15625 3.984375q1.15625 1.40625 3.96875 1.40625q3.84375 0 6.140625 -2.75q2.3125 -2.765625 4.609375 -8.515625l5.375 0q-4.734375 14.078125 -10.953125 18.875q-6.203125 4.796875 -12.859375 4.796875zm33.03064 0q-6.140625 0 -10.375 -2.359375q-4.21875 -2.375 -6.265625 -6.140625q-2.046875 -3.78125 -2.046875 -7.875q0 -4.234375 1.984375 -7.359375q1.984375 -3.140625 4.796875 -4.546875q5.0 -8.96875 8.703125 -18.109375q3.71875 -9.15625 7.046875 -19.78125l18.9375 -2.5625q0.640625 16.390625 2.171875 35.453125q0.640625 7.6875 0.640625 11.140625q0 2.9375 -0.5 4.859375q6.015625 -3.453125 9.203125 -6.390625l5.375 0q-8.1875 9.46875 -19.578125 16.0q-3.71875 3.96875 -9.15625 5.828125q-5.4375 1.84375 -10.9375 1.84375zm-4.09375 -10.109375q4.734375 0 7.921875 -2.8125q3.203125 -2.8125 3.203125 -9.09375q0 -3.84375 -0.765625 -10.75q-1.28125 -14.59375 -1.65625 -19.578125q-3.078125 10.109375 -10.375 24.1875q2.953125 1.53125 2.953125 4.484375q0 2.421875 -1.609375 4.34375q-1.59375 1.921875 -4.03125 1.921875q-2.6875 0 -3.453125 -1.65625q0 4.59375 1.859375 6.78125q1.859375 2.171875 5.953125 2.171875zm50.42726 10.109375q-6.53125 0 -9.671875 -3.96875q-3.125 -3.96875 -3.125 -10.5q0 -3.328125 0.765625 -6.78125l8.1875 -38.390625l-4.21875 0l1.015625 -5.125l4.234375 0l3.84375 -17.65625l18.9375 -2.5625q-1.15625 4.859375 -1.28125 5.75q-0.890625 3.59375 -3.078125 14.46875l7.6875 0l-1.03125 5.125l-7.671875 0l-8.1875 38.390625q-0.640625 2.828125 -0.640625 4.484375q0 4.609375 4.46875 4.609375q2.3125 0 3.328125 -0.390625q-2.546875 7.421875 -6.015625 9.984375q-3.453125 2.5625 -7.546875 2.5625z" fill-rule="nonzero"/><path fill="#ff8600" d="m279.0078 29.168882l0 101.1875l-23.0625 0l-13.6875 -46.0l0 46.0l-22.0 0l0 -101.1875l22.0 0l14.75 45.5625l0 -45.5625l22.0 0zm10.5625 0l44.5625 0l0 20.250002l-18.25 0l0 19.1875l16.25 0l0 19.25l-16.25 0l0 42.5l-26.3125 0l0 -101.1875zm103.9375 0l0 20.250002l-15.625 0l0 80.9375l-26.3125 0l0 -80.9375l-15.5625 0l0 -20.250002l57.5 0z" fill-rule="nonzero"/></g></svg>